<?xml version="1.0" encoding="utf-8"?>
<!-- Generator: Adobe Illustrator 22.0.0, SVG Export Plug-In . SVG Version: 6.00 Build 0)  -->
<svg version="1.1" id="logo" xmlns="http://www.w3.org/2000/svg" xmlns:xlink="http://www.w3.org/1999/xlink" x="0px" y="0px"
	 viewBox="0 0 199 62" style="enable-background:new 0 0 199 62;" xml:space="preserve">
<style type="text/css">
	.st0{filter:url(#Adobe_OpacityMaskFilter);}
	.st1{fill:#FFFFFF;}
	.st2{mask:url(#mask-2_1_);fill:#EB0029;}
	.st3{fill:#EB0029;}
	.st4{filter:url(#Adobe_OpacityMaskFilter_1_);}
	.st5{mask:url(#mask-4_1_);fill:#EB0029;}
	.st6{filter:url(#Adobe_OpacityMaskFilter_2_);}
	.st7{mask:url(#mask-6_1_);fill:#FFFFFF;}
	.st8{filter:url(#Adobe_OpacityMaskFilter_3_);}
	.st9{mask:url(#mask-6_2_);fill:#FFFFFF;}
	.st10{filter:url(#Adobe_OpacityMaskFilter_4_);}
	.st11{mask:url(#mask-6_3_);fill:#FFFFFF;}
</style>
<g id="Page-1_1_">
	<g id="Desktop_Careers" transform="translate(-130.000000, -36.000000)">
		<g id="Page-1" transform="translate(130.000000, 35.000000)">
			<g id="Group-3" transform="translate(0.000000, 22.995345)">
				<g id="Clip-2">
				</g>
				<defs>
					<filter id="Adobe_OpacityMaskFilter" filterUnits="userSpaceOnUse" x="0" y="1" width="79" height="38.5">
						<feColorMatrix  type="matrix" values="1 0 0 0 0  0 1 0 0 0  0 0 1 0 0  0 0 0 1 0"/>
					</filter>
				</defs>
				<mask maskUnits="userSpaceOnUse" x="0" y="1" width="79" height="38.5" id="mask-2_1_">
					<g class="st0">
						<polygon id="path-1_1_" class="st1" points="79,39.5 0,39.5 0,1 79,1 						"/>
					</g>
				</mask>
				<path id="Fill-1" class="st2" d="M61.5,5.7l14.7,6.1L79,8.2C69,4.2,58.1,1.2,48,1C19.4,0.4,0,28.8,0,28.8v10.6h14.5
					c0,0,16.5-31.5,53.3-24.6L61.5,5.7z"/>
			</g>
			<path id="Fill-4" class="st3" d="M100.1,20.4V9.8c-16.2,4.1-31.9,5.3-44,0.5C15.4-5.8,0,3.9,0,3.9V16c0,0,21.8-13.6,61,0
				C72.5,20,86.3,21,100.1,20.4z"/>
			<g id="Group-8" transform="translate(25.174825, 43.722618)">
				<g id="Clip-7">
				</g>
				<defs>
					<filter id="Adobe_OpacityMaskFilter_1_" filterUnits="userSpaceOnUse" x="0.6" y="0.3" width="74.3" height="18.5">
						<feColorMatrix  type="matrix" values="1 0 0 0 0  0 1 0 0 0  0 0 1 0 0  0 0 0 1 0"/>
					</filter>
				</defs>
				<mask maskUnits="userSpaceOnUse" x="0.6" y="0.3" width="74.3" height="18.5" id="mask-4_1_">
					<g class="st4">
						<polygon id="path-3_1_" class="st1" points="0.6,18.7 74.9,18.7 74.9,0.3 0.6,0.3 						"/>
					</g>
				</mask>
				<path id="Fill-6" class="st5" d="M60.8,17.6L50.5,4.5l-15.6,7.2l7.9-11.4C17.6-0.6,0.6,18.7,0.6,18.7h74.3v-6.1
					C69.7,8.8,64.7,6,59.8,4L60.8,17.6z"/>
			</g>
			<path id="Fill-9" class="st3" d="M0,40.8c0,0,17.7-25.4,53.1-20.3c10.6,1.5,20.2,4.3,28.5,7.5l2.4-3l0.1,3.9
				c6.3,2.5,11.7,5.2,16.1,7.6V24.9c-9.3-0.5-24.7-2.3-44.4-8.3C22.4,6.5,0,23.4,0,23.4V40.8z"/>
			<path id="Fill-11" class="st3" d="M84.1,38.8l10,3.2l-6.4,2.7c4,1.9,8.1,4.3,12.4,7.1V41.5C95.5,38.9,90,36,84,33.4L84.1,38.8z"
				/>
			<path id="Fill-13" class="st1" d="M116.4,22.9h1.6c0.5,0,0.9-0.1,1.2-0.2c0.3-0.1,0.5-0.3,0.7-0.6c0.2-0.3,0.3-0.6,0.3-1
				c0.1-0.4,0.1-0.8,0.1-1.3c0-0.5,0-0.9-0.1-1.3c-0.1-0.4-0.2-0.7-0.3-1c-0.2-0.3-0.4-0.5-0.7-0.6c-0.3-0.1-0.7-0.2-1.2-0.2h-1.5
				V22.9z M113.6,14h4.6c3.3,0,5,1.9,5,5.8c0,1.2-0.2,2.1-0.5,3c-0.4,0.8-1,1.5-1.9,2l3.1,9.1h-3l-2.6-8.5h-1.7v8.5h-2.8V14z"/>
			<path id="Fill-15" class="st1" d="M134.6,29.4c0,0.7-0.1,1.3-0.4,1.8c-0.2,0.6-0.6,1-1,1.5c-0.4,0.4-0.9,0.7-1.5,1
				c-0.6,0.2-1.1,0.4-1.8,0.4c-0.6,0-1.2-0.1-1.8-0.4c-0.6-0.2-1-0.6-1.5-1c-0.4-0.4-0.7-0.9-1-1.5c-0.2-0.6-0.4-1.2-0.4-1.8V14h2.8
				v15.2c0,0.7,0.2,1.2,0.5,1.6c0.3,0.3,0.7,0.5,1.3,0.5c0.5,0,0.9-0.2,1.2-0.5c0.3-0.3,0.5-0.9,0.5-1.6V14h2.8V29.4z"/>
			<path id="Fill-17" class="st1" d="M140.1,22.9h1.6c0.5,0,0.9-0.1,1.2-0.2c0.3-0.1,0.5-0.3,0.7-0.6c0.2-0.3,0.3-0.6,0.3-1
				c0.1-0.4,0.1-0.8,0.1-1.3c0-0.5,0-0.9-0.1-1.3c-0.1-0.4-0.2-0.7-0.3-1c-0.2-0.3-0.4-0.5-0.7-0.6c-0.3-0.1-0.7-0.2-1.2-0.2h-1.5
				V22.9z M137.2,14h4.6c3.3,0,5,1.9,5,5.8c0,1.2-0.2,2.1-0.5,3s-1,1.5-1.9,2l3.1,9.1h-3l-2.6-8.5h-1.7v8.5h-2.8V14z"/>
			<path id="Fill-19" class="st1" d="M153.4,19.7L153.4,19.7l-1.4,7.2h2.8L153.4,19.7z M152.2,14h2.4l4.4,19.9h-2.8l-0.8-4.3h-3.9
				l-0.8,4.3h-2.8L152.2,14z"/>
			<polygon id="Fill-21" class="st1" points="160.3,14 163.2,14 163.2,31 168.8,31 168.8,33.9 160.3,33.9 			"/>
			<path id="Fill-23" class="st1" d="M122.7,47.6h-2.8V47c0-0.7-0.2-1.2-0.5-1.7c-0.3-0.5-0.8-0.7-1.5-0.7c-0.4,0-0.7,0.1-1,0.2
				c-0.2,0.2-0.4,0.3-0.6,0.6c-0.1,0.2-0.2,0.5-0.3,0.8c-0.1,0.3-0.1,0.6-0.1,1c0,0.4,0,0.7,0,1c0,0.3,0.1,0.5,0.2,0.7
				c0.1,0.2,0.3,0.4,0.5,0.5c0.2,0.2,0.5,0.3,0.9,0.4l2.2,0.9c0.6,0.2,1.1,0.5,1.5,0.9s0.7,0.7,0.9,1.1c0.2,0.4,0.4,0.9,0.4,1.5
				c0.1,0.6,0.1,1.2,0.1,1.9c0,0.8-0.1,1.6-0.3,2.3c-0.2,0.7-0.4,1.3-0.8,1.8s-0.9,0.9-1.5,1.2c-0.6,0.3-1.4,0.4-2.3,0.4
				c-0.7,0-1.3-0.1-1.9-0.4c-0.6-0.2-1.1-0.6-1.5-1c-0.4-0.4-0.8-0.9-1-1.5c-0.2-0.6-0.4-1.2-0.4-1.9v-1.1h2.8v0.9
				c0,0.5,0.2,1,0.5,1.4c0.3,0.4,0.8,0.6,1.5,0.6c0.5,0,0.9-0.1,1.1-0.2c0.3-0.1,0.5-0.3,0.6-0.6c0.1-0.3,0.2-0.6,0.3-0.9
				c0-0.4,0.1-0.8,0.1-1.2c0-0.5,0-1-0.1-1.3c0-0.3-0.1-0.6-0.2-0.8c-0.1-0.2-0.3-0.4-0.5-0.5c-0.2-0.1-0.5-0.3-0.8-0.4l-2-0.8
				c-1.2-0.5-2-1.2-2.5-2c-0.4-0.8-0.6-1.9-0.6-3.1c0-0.7,0.1-1.5,0.3-2.1c0.2-0.7,0.5-1.2,0.9-1.7c0.4-0.5,0.9-0.9,1.5-1.2
				c0.6-0.3,1.3-0.4,2.1-0.4c0.7,0,1.3,0.1,1.9,0.4c0.6,0.3,1.1,0.6,1.5,1c0.4,0.4,0.7,0.9,1,1.4c0.2,0.5,0.3,1.1,0.3,1.6V47.6z"/>
			<path id="Fill-25" class="st1" d="M127.5,57.1c0,0.7,0.2,1.2,0.6,1.5c0.4,0.3,0.8,0.5,1.3,0.5c0.5,0,1-0.2,1.3-0.5
				c0.4-0.3,0.6-0.8,0.6-1.5V46.6c0-0.7-0.2-1.2-0.6-1.5c-0.4-0.3-0.8-0.5-1.3-0.5c-0.5,0-1,0.2-1.3,0.5c-0.4,0.3-0.6,0.8-0.6,1.5
				V57.1z M124.7,46.6c0-0.8,0.1-1.5,0.4-2.1c0.3-0.6,0.6-1.1,1.1-1.5c0.5-0.4,1-0.7,1.5-0.9c0.6-0.2,1.1-0.3,1.7-0.3
				s1.1,0.1,1.7,0.3c0.6,0.2,1.1,0.5,1.5,0.9c0.5,0.4,0.8,0.9,1.1,1.5c0.3,0.6,0.4,1.3,0.4,2.1v10.5c0,0.8-0.1,1.5-0.4,2.1
				c-0.3,0.6-0.6,1.1-1.1,1.5c-0.5,0.4-1,0.7-1.5,0.9c-0.6,0.2-1.1,0.3-1.7,0.3s-1.1-0.1-1.7-0.3c-0.6-0.2-1.1-0.5-1.5-0.9
				c-0.5-0.4-0.8-0.9-1.1-1.5c-0.3-0.6-0.4-1.3-0.4-2.1V46.6z"/>
			<path id="Fill-27" class="st1" d="M145.8,57.3c0,0.7-0.1,1.3-0.4,1.8c-0.2,0.6-0.6,1-1,1.5c-0.4,0.4-0.9,0.8-1.5,1
				c-0.6,0.2-1.1,0.4-1.8,0.4c-0.6,0-1.2-0.1-1.8-0.4c-0.6-0.2-1-0.6-1.5-1c-0.4-0.4-0.7-0.9-1-1.5c-0.2-0.6-0.4-1.2-0.4-1.8V41.9
				h2.8v15.2c0,0.7,0.2,1.2,0.5,1.6c0.3,0.3,0.7,0.5,1.2,0.5c0.5,0,0.9-0.2,1.2-0.5c0.3-0.3,0.5-0.9,0.5-1.6V41.9h2.8V57.3z"/>
			<path id="Fill-29" class="st1" d="M151.3,50.8h1.6c0.5,0,0.9-0.1,1.2-0.2c0.3-0.1,0.5-0.3,0.7-0.6c0.2-0.3,0.3-0.6,0.3-1
				c0.1-0.4,0.1-0.8,0.1-1.3c0-0.5,0-0.9-0.1-1.3c-0.1-0.4-0.2-0.7-0.3-1c-0.2-0.3-0.4-0.5-0.7-0.6c-0.3-0.1-0.7-0.2-1.2-0.2h-1.5
				V50.8z M148.5,41.9h4.6c3.3,0,5,1.9,5,5.8c0,1.2-0.2,2.1-0.5,3c-0.4,0.8-1,1.5-1.9,2l3.1,9.1h-3l-2.6-8.5h-1.7v8.5h-2.8V41.9z"/>
			<path id="Fill-31" class="st1" d="M169.3,57.4c0,0.6-0.1,1.2-0.3,1.8c-0.2,0.6-0.6,1-1,1.5c-0.4,0.4-0.9,0.8-1.4,1
				c-0.5,0.3-1.1,0.4-1.8,0.4c-0.5,0-1.1-0.1-1.6-0.2c-0.6-0.1-1.1-0.4-1.5-0.8c-0.4-0.4-0.8-0.8-1.1-1.4c-0.3-0.6-0.4-1.4-0.4-2.3
				v-11c0-0.7,0.1-1.3,0.3-1.8c0.2-0.6,0.5-1,0.9-1.5s0.9-0.7,1.5-1c0.6-0.2,1.2-0.3,1.9-0.3c0.6,0,1.2,0.1,1.8,0.3
				c0.6,0.2,1,0.6,1.4,1c0.4,0.4,0.7,0.9,1,1.5c0.2,0.6,0.3,1.2,0.3,1.9v1.1h-2.8v-1c0-0.6-0.2-1-0.5-1.5s-0.7-0.6-1.3-0.6
				c-0.7,0-1.2,0.2-1.4,0.7c-0.2,0.4-0.3,1-0.3,1.7v10.2c0,0.6,0.1,1.1,0.4,1.5c0.3,0.4,0.7,0.6,1.3,0.6c0.2,0,0.4,0,0.6-0.1
				c0.2-0.1,0.4-0.2,0.6-0.3c0.2-0.1,0.3-0.4,0.4-0.6c0.1-0.3,0.2-0.6,0.2-1v-1h2.8V57.4z"/>
			<g id="Clip-34">
			</g>
			<defs>
				<filter id="Adobe_OpacityMaskFilter_2_" filterUnits="userSpaceOnUse" x="171.7" y="41.9" width="2.8" height="19.9">
					<feColorMatrix  type="matrix" values="1 0 0 0 0  0 1 0 0 0  0 0 1 0 0  0 0 0 1 0"/>
				</filter>
			</defs>
			<mask maskUnits="userSpaceOnUse" x="171.7" y="41.9" width="2.8" height="19.9" id="mask-6_1_">
				<g class="st6">
					<polygon id="path-5_1_" class="st1" points="0,62.4 198.9,62.4 198.9,1 0,1 					"/>
				</g>
			</mask>
			<polygon id="Fill-33" class="st7" points="171.7,61.8 174.5,61.8 174.5,41.9 171.7,41.9 			"/>
			<defs>
				<filter id="Adobe_OpacityMaskFilter_3_" filterUnits="userSpaceOnUse" x="177.2" y="41.9" width="9.9" height="19.9">
					<feColorMatrix  type="matrix" values="1 0 0 0 0  0 1 0 0 0  0 0 1 0 0  0 0 0 1 0"/>
				</filter>
			</defs>
			<mask maskUnits="userSpaceOnUse" x="177.2" y="41.9" width="9.9" height="19.9" id="mask-6_2_">
				<g class="st8">
					<polygon id="path-5_2_" class="st1" points="0,62.4 198.9,62.4 198.9,1 0,1 					"/>
				</g>
			</mask>
			<polygon id="Fill-35" class="st9" points="177.2,41.9 179.9,41.9 184.2,53.9 184.2,53.9 184.2,41.9 187.1,41.9 187.1,61.8 
				184.4,61.8 180.1,49.8 180,49.8 180,61.8 177.2,61.8 			"/>
			<defs>
				<filter id="Adobe_OpacityMaskFilter_4_" filterUnits="userSpaceOnUse" x="189.4" y="41.7" width="9.5" height="20.3">
					<feColorMatrix  type="matrix" values="1 0 0 0 0  0 1 0 0 0  0 0 1 0 0  0 0 0 1 0"/>
				</filter>
			</defs>
			<mask maskUnits="userSpaceOnUse" x="189.4" y="41.7" width="9.5" height="20.3" id="mask-6_3_">
				<g class="st10">
					<polygon id="path-5_3_" class="st1" points="0,62.4 198.9,62.4 198.9,1 0,1 					"/>
				</g>
			</mask>
			<path id="Fill-36" class="st11" d="M189.4,46.6c0-0.8,0.1-1.5,0.4-2.1c0.3-0.6,0.6-1.1,1.1-1.5c0.5-0.4,1-0.7,1.5-0.9
				c0.6-0.2,1.1-0.3,1.7-0.3c0.6,0,1.1,0.1,1.7,0.3c0.6,0.2,1.1,0.5,1.5,0.9c0.5,0.4,0.8,0.9,1.1,1.5c0.3,0.6,0.4,1.3,0.4,2.1v1
				h-2.8v-1c0-0.7-0.2-1.2-0.6-1.5c-0.4-0.3-0.8-0.5-1.3-0.5c-0.5,0-1,0.2-1.3,0.5c-0.4,0.3-0.6,0.8-0.6,1.5v10.5
				c0,0.7,0.2,1.2,0.6,1.5c0.4,0.3,0.8,0.5,1.3,0.5c0.5,0,1-0.2,1.3-0.5c0.4-0.3,0.6-0.8,0.6-1.5v-3.7h-2.3v-2.5h5.1v6.3
				c0,0.8-0.1,1.5-0.4,2.1c-0.3,0.6-0.6,1.1-1.1,1.5c-0.5,0.4-1,0.7-1.5,0.9c-0.6,0.2-1.1,0.3-1.7,0.3c-0.6,0-1.1-0.1-1.7-0.3
				c-0.6-0.2-1.1-0.5-1.5-0.9c-0.5-0.4-0.8-0.9-1.1-1.5c-0.3-0.6-0.4-1.3-0.4-2.1V46.6z"/>
		</g>
	</g>
</g>
</svg>
